<svg id="Layer_1" data-name="Layer 1" xmlns="http://www.w3.org/2000/svg" viewBox="0 0 510.46 55.16"><defs><style>.cls-1{fill:#fff;}</style></defs><title>Cohero Logo_Horizontal_White</title><path class="cls-1" d="M261.3,267.13a3.14,3.14,0,0,0-3,1.28c-2.32,3.18-6.38,5-11.13,5a14.23,14.23,0,0,1-11-5,16.22,16.22,0,0,1-3.28-10.13c0-9,5.87-15.57,14-15.57a13.64,13.64,0,0,1,10.61,4.64,3.24,3.24,0,0,0,3.13,1.14,3.74,3.74,0,0,0,2.79-2.35,3,3,0,0,0-.67-3c-4.3-4.86-9-7-15.22-7-12.41,0-21.2,8.26-21.87,20.55a23.82,23.82,0,0,0,4.88,16.15A22.07,22.07,0,0,0,247,280.12a20.87,20.87,0,0,0,16.34-7.35,3.3,3.3,0,0,0,.79-3.41A3.65,3.65,0,0,0,261.3,267.13Z" transform="translate(-225.54 -224.95)"/><path class="cls-1" d="M294.89,237.21a26,26,0,0,0-12.35,0c-8.7,2.45-14.41,9.7-15.29,19.42-.25,6.35,1.39,11.52,5,15.81a22,22,0,0,0,33,0,22.13,22.13,0,0,0,5-15.84C309.5,247.11,303.61,239.69,294.89,237.21Zm8.27,21.28a15.7,15.7,0,0,1-3.35,9.56,15.06,15.06,0,0,1-11,5,14.34,14.34,0,0,1-10.93-5,15.08,15.08,0,0,1-3.36-9.72c0-7.22,4-12.94,10.14-14.55a16.27,16.27,0,0,1,4.07-.54,18.29,18.29,0,0,1,4.23.54C299.15,245.39,303.16,251.16,303.16,258.49Z" transform="translate(-225.54 -224.95)"/><path class="cls-1" d="M351.79,241.19a19.61,19.61,0,0,0-13.11-4.81c-6.19,0-11.19,2.31-14.55,6.28V228.18a3.58,3.58,0,0,0-7.13,0v47.91a3.39,3.39,0,0,0,3.65,3.55,3.28,3.28,0,0,0,3.48-3.55V256.17c0-8.14,7.47-13,14.53-13A11.79,11.79,0,0,1,350.56,255v21.12a3.38,3.38,0,0,0,3.6,3.55,3.31,3.31,0,0,0,3.53-3.55V255A18,18,0,0,0,351.79,241.19Z" transform="translate(-225.54 -224.95)"/><path class="cls-1" d="M392.47,237.25l-.09-.05h-.08c-4.18-.84-8.54-1.05-12.27.06a20.23,20.23,0,0,0-13.85,13.29,23.78,23.78,0,0,0,3.51,21.71c3.68,4.62,9.94,7.38,16.75,7.38h.44c5.77,0,10.82-1.76,14.29-5,1.8-1.85,1.52-3.81.43-4.93a3.67,3.67,0,0,0-5.18,0A16.83,16.83,0,0,1,386.22,273c-6.88,0-12.46-4.32-13.83-10.61h30.79a4.77,4.77,0,0,0,3.67-1.36,4,4,0,0,0,.91-3.12C407.55,247.56,401.85,239.83,392.47,237.25Zm8.28,18.82H372.08c.7-6.29,4.43-10.72,10.09-12.21a16.16,16.16,0,0,1,7.36-.29l.84.22C396.06,245.25,400,249.78,400.75,256.07Z" transform="translate(-225.54 -224.95)"/><path class="cls-1" d="M433.17,236.94c-5,0-8.8,1.69-11.32,5v-1.55a3.31,3.31,0,0,0-1-2.59,3.2,3.2,0,0,0-2.22-.85,3.36,3.36,0,0,0-3.48,3.43v35.43a3.38,3.38,0,0,0,3.6,3.47,3.45,3.45,0,0,0,3.53-3.47V257.77c0-12.61,7.69-14,11-14,2.29,0,3.65-1.3,3.65-3.39S435.46,236.94,433.17,236.94Z" transform="translate(-225.54 -224.95)"/><path class="cls-1" d="M536.24,241.3a19,19,0,0,0-12.77-4.72c-6.05,0-11.23,2.25-14.16,6.12V228.55c0-2.08-1.8-3.17-3.59-3.17a3.27,3.27,0,0,0-3.54,3.17v46.94a3.38,3.38,0,0,0,3.64,3.49,3.27,3.27,0,0,0,3.49-3.49V256c0-8,7.17-12.73,14.09-12.73a11.42,11.42,0,0,1,11.5,11.55v20.69a3.41,3.41,0,0,0,3.6,3.49,3.3,3.3,0,0,0,3.53-3.49V254.8A17.65,17.65,0,0,0,536.24,241.3Z" transform="translate(-225.54 -224.95)"/><path class="cls-1" d="M576.34,237.55l-.09.07h-.08a21,21,0,0,0-12-.06,19.75,19.75,0,0,0-13.58,13A23.25,23.25,0,0,0,554,271.78c3.6,4.53,9.75,7.22,16.42,7.22h.43c5.65,0,10.61-1.73,14-4.91,1.77-1.82,1.49-3.75.42-4.85a3.61,3.61,0,0,0-5.09,0,16.37,16.37,0,0,1-10,3.12c-6.73,0-12.18-4.14-13.53-10.43h30.14a4.67,4.67,0,0,0,3.61-1.28,3.73,3.73,0,0,0,.9-3C591.13,247.56,585.53,240.08,576.34,237.55Zm8.09,18.1H556.37c.69-5.87,4.33-10.37,9.87-11.83a15.81,15.81,0,0,1,7.2-.23l.83.14A13.72,13.72,0,0,1,584.43,255.65Z" transform="translate(-225.54 -224.95)"/><path class="cls-1" d="M633.12,237.13a3.17,3.17,0,0,0-3.32,3.49v.94A16.11,16.11,0,0,0,618,236.81a22.13,22.13,0,0,0-5.93.58l.23-.25-2.93,1.12c-7.42,2.86-12.33,10.21-12.5,18.71-.25,8.07,3,14.82,9.06,19a20.7,20.7,0,0,0,11.75,3.49,16.31,16.31,0,0,0,12.09-5.52v1.48c0,2.12,1.19,3.49,3.32,3.49a3.24,3.24,0,0,0,3.39-3.49V240.62A3.27,3.27,0,0,0,633.12,237.13ZM629.81,255v6.17c-.42,7-5.35,11.56-12.62,11.57a14.65,14.65,0,0,1-7.71-2.82A15.21,15.21,0,0,1,604,257.1a16.4,16.4,0,0,1,1.12-5.58c1.91-4.78,6.94-8,12.53-8h.28C625.32,243.89,629.81,248.15,629.81,255Z" transform="translate(-225.54 -224.95)"/><path class="cls-1" d="M651.32,225.14a3.23,3.23,0,0,0-3.39,3.34v47a3.36,3.36,0,0,0,6.71,0v-47A3.23,3.23,0,0,0,651.32,225.14Z" transform="translate(-225.54 -224.95)"/><path class="cls-1" d="M688.88,271.67a3.37,3.37,0,0,0-3.45.11,8.57,8.57,0,0,1-3.42.77c-3.81,0-5.45-2.46-5.45-8.5V243.49h8a3.15,3.15,0,1,0,0-6.29h-8v-8.34a3.36,3.36,0,1,0-6.71,0v8.34h-4.61a3.24,3.24,0,0,0-3.35,3.24,3,3,0,0,0,.85,2.11,3.36,3.36,0,0,0,2.5.93h4.61V264c0,10,4.1,15,12.29,15a12.42,12.42,0,0,0,6.33-1.42,3.61,3.61,0,0,0,2-3.1A3.3,3.3,0,0,0,688.88,271.67Z" transform="translate(-225.54 -224.95)"/><path class="cls-1" d="M730.25,241.3a19.06,19.06,0,0,0-12.79-4.72c-6.05,0-11.24,2.25-14.17,6.12V228.55c0-2.08-1.8-3.17-3.59-3.17a3.27,3.27,0,0,0-3.54,3.17v46.94A3.38,3.38,0,0,0,699.8,279a3.27,3.27,0,0,0,3.49-3.49V256c0-8,7.17-12.73,14.09-12.73a11.42,11.42,0,0,1,11.5,11.55v20.69a3.41,3.41,0,0,0,3.6,3.49,3.3,3.3,0,0,0,3.53-3.49V254.8A17.63,17.63,0,0,0,730.25,241.3Z" transform="translate(-225.54 -224.95)"/><path class="cls-1" d="M476.11,242.59c-4.58-.57-7.8-4-12.1-5.26a20.91,20.91,0,0,0-12,.26c-8.38,2.7-13.72,10.38-14.43,19-.52,9.8,5,19.18,14.61,22.11,9.22,2.81,18.89.13,24.13-8.09a20.29,20.29,0,0,0,3.57-11.5,5.43,5.43,0,0,0-.72-3.15,4,4,0,0,0-5.32-1c-1.52,1.05-1.62,2.75-1.6,4.41a14.7,14.7,0,0,1-1,5.48,12.33,12.33,0,0,1-8.1,7.31c-9.22,2.95-18.37-4.23-18.45-13.71-.07-8,5.29-14.58,13.42-15,3.89-.19,6.63,1.38,9.94,3.11,3.61,1.88,7.29,3.36,11.4,3.12,3-.17,8.61-2.33,5.82-7C483.46,239.65,479,243,476.11,242.59Z" transform="translate(-225.54 -224.95)"/></svg>