<?xml version="1.0" encoding="UTF-8" standalone="no"?>
<svg width="115px" height="191px" viewBox="0 0 115 191" version="1.1" xmlns="http://www.w3.org/2000/svg" xmlns:xlink="http://www.w3.org/1999/xlink">
    <!-- Generator: Sketch 41 (35326) - http://www.bohemiancoding.com/sketch -->
    <title>Spirometer</title>
    <desc>Created with Sketch.</desc>
    <defs></defs>
    <g id="Page-1" stroke="none" stroke-width="1" fill="none" fill-rule="evenodd">
        <g id="Bootstrap-Copy" transform="translate(-821.000000, -301.000000)">
            <g id="Spirometer" transform="translate(821.000000, 301.000000)">
                <circle id="_Path_10" fill="#46BEB2" cx="58.53" cy="144.64" r="3.51"></circle>
                <path d="M78.59,8.75 L78.59,8.75 C78.59,4.44 68.94,0.99 57.07,1.04 C45.37,1.09 35.87,4.53 35.63,8.76 L35.63,8.76 L35.63,8.81 L35.63,8.93 L35.63,9.04 L35.63,48.3 L78.63,48.3 L78.63,8.75 L78.59,8.75 Z" id="_Path_11" fill="#F2F2F2"></path>
                <path d="M74.96,4.37 C71.1,2.29 64.53,0.95 57.08,0.98 C45.38,1.03 35.88,4.47 35.64,8.7 L35.64,8.7 L35.64,8.75 L35.64,8.87 L35.64,8.98 L35.64,48.24 L74.92,48.24" id="_Path_12" fill="#F2F2F2"></path>
                <circle id="_Path_13" fill="#E9E9E9" cx="57.26" cy="54.13" r="24.87"></circle>
                <path d="M114.26,78.37 C112.51739,71.4748765 108.230364,65.4944754 102.26,61.63 C89.5245077,51.771955 73.9612456,46.2617189 57.86,45.91 L57.86,45.91 L56.86,45.91 L56.86,45.91 C40.7587544,46.2617189 25.1954923,51.771955 12.46,61.63 C6.4896359,65.4944754 2.20261003,71.4748765 0.46,78.37 C0.15,79.6 4.18,175.65 5.46,179.89 C17.83,186.03 42.36,189.79 56.9,190.61 L56.9,190.67 L57.42,190.67 L57.94,190.67 L57.94,190.61 C72.48,189.79 96.56,186.03 108.94,179.89 C110.04,175.66 114.52,79.61 114.26,78.37 Z" id="_Path_14" fill="#F2F2F2"></path>
                <g id="_Group_4" transform="translate(45.000000, 152.000000)" fill="#AEAEAF">
                    <path d="M13.01,24.85 C6.24581406,24.8499977 0.761843627,19.3675163 0.760004534,12.6033306 C0.758165442,5.83914492 6.23915383,0.353682252 13.0033388,0.350001813 C19.7675237,0.346321375 25.2544782,5.82581631 25.26,12.59 C25.2544957,19.3548268 19.7748201,24.8389756 13.01,24.85 Z M13.01,1.62 C6.93486775,1.62 2.01,6.54486775 2.01,12.62 C2.01,18.6951322 6.93486775,23.62 13.01,23.62 C19.0851322,23.62 24.01,18.6951322 24.01,12.62 C24.01,6.54486775 19.0851322,1.62 13.01,1.62 Z" id="Shape"></path>
                </g>
                <g id="_Group_5" transform="translate(49.000000, 156.000000)" fill="#AEAEAF">
                    <path d="M9.01,16.85 C4.44812797,16.85 0.75,13.151872 0.75,8.59 C0.75,4.02812797 4.44812797,0.33 9.01,0.33 C13.571872,0.33 17.27,4.02812797 17.27,8.59 C17.2644899,13.1495877 13.5695877,16.8444899 9.01,16.85 Z M9.01,1.62 C5.14400675,1.62 2.01,4.75400675 2.01,8.62 C2.01,12.4859932 5.14400675,15.62 9.01,15.62 C12.8759932,15.62 16.01,12.4859932 16.01,8.62 C16.01,4.75400675 12.8759932,1.62 9.01,1.62 L9.01,1.62 Z" id="Shape"></path>
                </g>
                <circle id="_Path_15" fill="#46BEB2" cx="58.53" cy="144.64" r="2.35"></circle>
                <circle id="_Path_16" fill="#969695" cx="58.53" cy="135.91" r="2.35"></circle>
                <circle id="_Path_17" fill="#969695" cx="58.53" cy="127.19" r="2.35"></circle>
                <path d="M6.97,69.17 C4.00234002,72.4800759 1.88173111,76.4605068 0.79,80.77 C0.49,81.97 4.43,175.97 5.67,180.13 C6.43666667,180.51 7.25,180.88 8.11,181.24 C8.82333333,181.54 9.56333333,181.833333 10.33,182.12" id="_Path_18" fill="#E9E9E9"></path>
                <g id="_Group_6" transform="translate(46.000000, 67.000000)" fill="#1D72E3">
                    <path d="M12.54,23.82 C6.00647141,23.82 0.71,18.5235286 0.71,11.99 C0.71,5.45647141 6.00647141,0.16 12.54,0.16 C19.0735286,0.16 24.37,5.45647141 24.37,11.99 C24.3644861,18.5212433 19.0712433,23.8144861 12.54,23.82 Z M12.54,2.74 C7.42584322,2.74 3.28,6.88584322 3.28,12 C3.28,17.1141568 7.42584322,21.26 12.54,21.26 C17.6541568,21.26 21.8,17.1141568 21.8,12 C21.7944885,6.88812788 17.6518721,2.74551146 12.54,2.74 Z" id="Shape"></path>
                </g>
            </g>
        </g>
    </g>
</svg>