<?xml version="1.0" encoding="UTF-8" standalone="no"?>
<svg width="92px" height="44px" viewBox="0 0 92 44" version="1.1" xmlns="http://www.w3.org/2000/svg" xmlns:xlink="http://www.w3.org/1999/xlink">
    <!-- Generator: Sketch 41.1 (35376) - http://www.bohemiancoding.com/sketch -->
    <title>eMDI LOGO</title>
    <desc>Created with Sketch.</desc>
    <g id="Page-1" stroke="none" stroke-width="1" fill="none" fill-rule="evenodd">
        <g id="Resize-for-TV" transform="translate(-989.000000, -15.000000)" fill="#FFFFFF">
            <g id="Header"  transform="translate(0.000000, 1.873504)">
                <g id="eMDI-LOGO" transform="translate(992.957265, 14.988034)">
                    <g id="Layer_1">
                        <polygon id="Shape" points="36.7983916 3.85469285 42.0548485 19.376085 42.1187179 19.376085 47.0909557 3.85469285 54.0463403 3.85469285 54.0463403 26.4248495 49.4189977 26.4248495 49.4189977 10.4288362 49.3551282 10.4288362 43.8463869 26.4216426 40.0397669 26.4216426 34.5310256 10.5859743 34.4575758 10.5859743 34.4575758 26.4216426 29.8398135 26.4216426 29.8398135 3.85469285"></polygon>
                        <path d="M66.7627506,3.85469285 C68.1419632,3.84289041 69.5121885,4.07855652 70.8088811,4.55058997 C72.0329589,4.99917396 73.1423395,5.71558021 74.0566434,6.64790206 C75.009136,7.63972667 75.7387488,8.82513767 76.1962704,10.1241808 C76.7398168,11.6988896 77.0004094,13.3580578 76.9658974,15.0243228 C76.9773375,16.5644956 76.7621155,18.0979153 76.3272028,19.5749128 C75.9417884,20.8958197 75.289539,22.1228372 74.4111189,23.1794675 C73.5391137,24.2061083 72.4474626,25.0217114 71.2176457,25.5654005 C69.8062097,26.1722163 68.2817584,26.4685472 66.7467832,26.4344702 L57.067366,26.4344702 L57.067366,3.85469285 L66.7627506,3.85469285 Z M66.4178555,22.2526736 C67.1252238,22.2544566 67.8279055,22.1373926 68.4968065,21.9063285 C69.1772501,21.6688248 69.7921948,21.273254 70.2915385,20.7518448 C70.8552261,20.1497203 71.2842213,19.4335446 71.5497669,18.6513258 C71.8889861,17.6328883 72.048922,16.5628896 72.0224009,15.4893232 C72.0372803,14.4529975 71.9300871,13.4185398 71.7030536,12.407493 C71.5119749,11.5542478 71.1418078,10.7517628 70.6172727,10.053629 C70.0937241,9.38572501 69.4042233,8.86808447 68.6181585,8.55280018 C67.6392439,8.17804404 66.5964513,8.00042717 65.5492308,8.03007561 L62.0364103,8.03007561 L62.0364103,22.2558805 L66.4178555,22.2526736 Z" id="Shape"></path>
                        <polygon id="Shape" points="84.0138928 3.85469285 84.0138928 26.4248495 79.0703963 26.4248495 79.0703963 3.85469285"></polygon>
                        <path d="M27.0646853,19.5524645 L27.0646853,18.5326705 C27.0660131,14.180648 23.7218985,10.5655364 19.3997498,10.2465918 C15.0776012,9.92764727 11.2431679,13.0130319 10.6109712,17.3185007 C9.97877439,21.6239695 12.763208,25.6894296 16.99308,26.6368085 C21.222952,27.5841874 25.4638064,25.0922049 26.7134033,20.9250173 L23.3826107,20.9250173 C22.4943794,22.6374436 20.7322766,23.7124958 18.8095571,23.7150196 C16.1206527,23.7150196 13.6712587,21.9319837 13.6712587,19.5460507 L27.0646853,19.5524645 Z M18.8095571,13.3503214 C21.0948019,13.3534893 23.1065499,14.8637528 23.7562471,17.0639107 L13.8564802,17.0639107 C14.5068511,14.8614793 16.521948,13.3506523 18.8095571,13.3503214 Z" id="Shape"></path>
                        <path d="M18.0271562,0 L18.0271562,3.32555448 L17.5768765,3.35762347 C17.2575291,3.38327866 16.9637296,3.39931316 16.6603497,3.43458905 C16.3569697,3.46986494 15.9897203,3.52117533 15.6544056,3.57889951 C14.9743296,3.70054733 14.3040369,3.8720405 13.6489044,4.09200339 C13.0019812,4.30748203 12.3703535,4.5667667 11.7583683,4.868073 C11.2609175,5.11333199 10.7769417,5.38524099 10.3085315,5.68262539 C9.54248788,6.17386736 8.82019924,6.73073693 8.14974359,7.34700608 C7.5409724,7.91013239 6.97817959,8.52140483 6.46678322,9.17493863 C6.08645992,9.6489062 5.74168276,10.1505597 5.43529138,10.6757675 C5.17662005,11.1215264 4.93391608,11.5769061 4.70398601,12.0354927 C4.44644651,12.5647519 4.22557252,13.1112221 4.04293706,13.6710113 C3.79758448,14.4038897 3.60756726,15.1542901 3.47449883,15.9158408 C3.35361009,16.6358927 3.28212091,17.3634334 3.26053613,18.0933253 L3.26053613,18.231222 L0,18.231222 C0.0280298457,15.6047826 0.627494296,13.0162483 1.75641026,10.6469054 C3.44198022,7.04028151 6.24209679,4.07655068 9.74009324,2.19672596 C12.2857122,0.804331341 15.1288476,0.0506760015 18.0271562,9.11455574e-15 L18.0271562,0 Z" id="Shape"></path>
                        <path d="M8.23596737,18.2183944 L4.95946387,18.2440496 C4.97210942,16.6262822 5.28622172,15.0251884 5.8855711,13.523494 C6.87970679,10.9814702 8.62487839,8.80594219 10.8865501,7.2892819 C12.9989948,5.84424855 15.4844468,5.04756574 18.0399301,4.99634896 L18.0399301,8.30266205 C12.6630931,8.45692716 8.35118969,12.8179882 8.23596737,18.2183944 L8.23596737,18.2183944 Z" id="Shape"></path>
                        <ellipse id="Oval" cx="6.53703963" cy="20.6877068" rx="1.57438228" ry="1.58100131"></ellipse>
                        <ellipse id="Oval" cx="11.7934965" cy="27.999437" rx="1.57438228" ry="1.58100131"></ellipse>
                        <ellipse id="Oval" cx="14.4983683" cy="31.5077847" rx="1.57438228" ry="1.58100131"></ellipse>
                        <ellipse id="Oval" cx="7.46634033" cy="28.1822302" rx="1.57438228" ry="1.58100131"></ellipse>
                        <ellipse id="Oval" cx="10.777972" cy="32.0465438" rx="0.977202797" ry="0.981311157"></ellipse>
                        <ellipse id="Oval" cx="13.3135897" cy="34.6120631" rx="0.977202797" ry="0.981311157"></ellipse>
                        <ellipse id="Oval" cx="7.54298368" cy="31.8669574" rx="0.977202797" ry="0.981311157"></ellipse>
                        <ellipse id="Oval" cx="17.8036131" cy="29.5868521" rx="0.977202797" ry="0.981311157"></ellipse>
                        <ellipse id="Oval" cx="17.3661072" cy="33.6211313" rx="0.977202797" ry="0.981311157"></ellipse>
                        <ellipse id="Oval" cx="9.88379953" cy="25.0330552" rx="0.977202797" ry="0.981311157"></ellipse>
                        <ellipse id="Oval" cx="4.16109557" cy="27.999437" rx="0.977202797" ry="0.981311157"></ellipse>
                        <ellipse id="Oval" cx="3.66291375" cy="22.9453638" rx="0.977202797" ry="0.981311157"></ellipse>
                        <ellipse id="Oval" cx="1.53606061" cy="20.8608793" rx="0.977202797" ry="0.981311157"></ellipse>
                        <ellipse id="Oval" cx="2.53881119" cy="25.356952" rx="0.977202797" ry="0.981311157"></ellipse>
                        <ellipse id="Oval" cx="6.67755245" cy="24.436572" rx="0.977202797" ry="0.981311157"></ellipse>
                    </g>
                </g>
            </g>
        </g>
    </g>
</svg>
