<?xml version="1.0" encoding="UTF-8" standalone="no"?>
<svg width="1170px" height="78px" viewBox="0 0 1170 78" version="1.1" xmlns="http://www.w3.org/2000/svg" xmlns:xlink="http://www.w3.org/1999/xlink">
    <!-- Generator: Sketch 41 (35326) - http://www.bohemiancoding.com/sketch -->
    <title>Header</title>
    <desc>Created with Sketch.</desc>
    <defs>
        <filter x="-50%" y="-50%" width="200%" height="200%" filterUnits="objectBoundingBox" id="filter-1">
            <feOffset dx="0" dy="2" in="SourceAlpha" result="shadowOffsetOuter1"></feOffset>
            <feGaussianBlur stdDeviation="2" in="shadowOffsetOuter1" result="shadowBlurOuter1"></feGaussianBlur>
            <feColorMatrix values="0 0 0 0 0   0 0 0 0 0   0 0 0 0 0  0 0 0 0.5 0" type="matrix" in="shadowBlurOuter1" result="shadowMatrixOuter1"></feColorMatrix>
            <feMerge>
                <feMergeNode in="shadowMatrixOuter1"></feMergeNode>
                <feMergeNode in="SourceGraphic"></feMergeNode>
            </feMerge>
        </filter>
        <rect id="path-2" x="0" y="0" width="1170" height="70" rx="3"></rect>
        <mask id="mask-3" maskContentUnits="userSpaceOnUse" maskUnits="objectBoundingBox" x="0" y="0" width="1170" height="70" fill="white">
            <use xlink:href="#path-2"></use>
        </mask>
    </defs>
    <g id="Page-1" stroke="none" stroke-width="1" fill="none" fill-rule="evenodd">
        <g id="Bootstrap">
            <g id="Header" filter="url(#filter-1)" transform="translate(0.000000, 2.000000)">
                <use id="Rectangle-279" stroke="#0092E2" mask="url(#mask-3)" stroke-width="2" fill="#0087E2" xlink:href="#path-2"></use>
                <path d="M42.4759783,16.6646375 C39.0775994,15.6739937 35.1873499,15.821851 31.8187813,16.9012091 C24.3960064,19.2669255 19.6561622,26.0240029 19.030145,33.609081 C18.5680847,42.22916 23.4420755,50.4795959 31.9827382,53.0523125 C40.1656768,55.5215289 48.7361499,53.1705983 53.371658,45.9403776 C55.4136663,42.7614462 56.5911748,39.5677291 56.5315541,35.8269401 C56.516649,34.8658678 56.4868386,33.934367 55.8906318,33.0620091 C54.9068905,31.5982221 52.6263994,31.169436 51.1805979,32.1748655 C49.8242274,33.1063663 49.7497015,34.5997247 49.7646067,36.048726 C49.794417,38.4735853 49.1087792,40.3809441 48.9001068,40.8688731 C47.4990208,44.1660903 45.1440038,46.2065207 41.7158146,47.3006645 C33.5477811,49.8881668 25.4244632,43.589447 25.3648425,35.2502967 C25.3052218,28.241862 30.0599712,22.4162854 37.2591686,22.061428 C40.7171682,21.8839992 43.1318058,23.2738576 46.0681244,24.7967875 C49.2578309,26.452789 52.5369684,27.753933 56.17383,27.5469328 C58.8120452,27.3990755 63.8052774,25.4917167 61.331019,21.3812845 C59.7361658,18.7050678 55.8012008,21.6178561 53.2077011,21.2925701 C49.1385895,20.7898554 46.2917019,17.773567 42.4759783,16.6646375 Z" id="Icons-/-icon_coherohealth" fill="#FFFFFF"></path>
                <g id="eMDI-LOGO" transform="translate(1060.000000, 16.000000)" fill="#FFFFFF">
                    <g id="Layer_1">
                        <polygon id="Shape" points="39.2829545 4.11495495 44.8943182 20.6843243 44.9625 20.6843243 50.2704545 4.11495495 57.6954545 4.11495495 57.6954545 28.209009 52.7556818 28.209009 52.7556818 11.132973 52.6875 11.132973 46.8068182 28.2055856 42.7431818 28.2055856 36.8625 11.3007207 36.7840909 11.3007207 36.7840909 28.2055856 31.8545455 28.2055856 31.8545455 4.11495495"></polygon>
                        <path d="M71.2704545,4.11495495 C72.7427892,4.10235564 74.2055297,4.35393351 75.5897727,4.85783784 C76.8964981,5.33670943 78.0807821,6.10148618 79.0568182,7.09675676 C80.0736215,8.15554763 80.8524965,9.4209955 81.3409091,10.8077477 C81.9211548,12.4887782 82.1993421,14.2599705 82.1625,16.0387387 C82.1747124,17.6829014 81.9449591,19.3198548 81.4806818,20.8965766 C81.0692449,22.3066689 80.3729568,23.6165325 79.4352273,24.7445045 C78.5043459,25.8404623 77.3389883,26.7111335 76.0261364,27.2915315 C74.5194027,27.9393185 72.8920231,28.2556571 71.2534091,28.2192793 L60.9204545,28.2192793 L60.9204545,4.11495495 L71.2704545,4.11495495 Z M70.9022727,23.7551351 C71.6574013,23.7570385 72.4075269,23.6320705 73.1215909,23.3854054 C73.8479768,23.1318659 74.5044415,22.7095868 75.0375,22.152973 C75.6392468,21.5101942 76.0972071,20.7456635 76.3806818,19.9106306 C76.7428045,18.82343 76.913539,17.6811869 76.8852273,16.5351351 C76.9011113,15.4288386 76.7866805,14.3245361 76.5443182,13.2452252 C76.3403381,12.3343704 75.945178,11.477703 75.3852273,10.7324324 C74.8263295,10.0194327 74.0902749,9.466842 73.2511364,9.13027027 C72.2061272,8.73021125 71.092927,8.540602 69.975,8.57225225 L66.225,8.57225225 L66.225,23.7585586 L70.9022727,23.7551351 Z" id="Shape"></path>
                        <polygon id="Shape" points="89.6863636 4.11495495 89.6863636 28.209009 84.4090909 28.209009 84.4090909 4.11495495"></polygon>
                        <path d="M28.8920455,20.8726126 L28.8920455,19.783964 C28.8934629,15.1381005 25.3235595,11.2789029 20.709587,10.9384237 C16.0956144,10.5979446 12.0022869,13.891649 11.3274053,18.4878155 C10.6525238,23.0839821 13.6249574,27.4239349 18.140423,28.4352791 C22.6558886,29.4466234 27.183078,26.7863867 28.5170455,22.3378378 L24.9613636,22.3378378 C24.0131605,24.1658842 22.1320836,25.3135219 20.0795455,25.3162162 C17.2090909,25.3162162 14.5943182,23.4127928 14.5943182,20.8657658 L28.8920455,20.8726126 Z M20.0795455,14.2517117 C22.519086,14.2550935 24.6666636,15.8673274 25.3602273,18.216036 L14.7920455,18.216036 C15.4863283,15.8649003 17.637481,14.252065 20.0795455,14.2517117 Z" id="Shape"></path>
                        <path d="M19.2443182,0 L19.2443182,3.55009009 L18.7636364,3.58432432 C18.4227273,3.61171171 18.1090909,3.62882883 17.7852273,3.66648649 C17.4613636,3.70414414 17.0693182,3.75891892 16.7113636,3.82054054 C15.9853701,3.9504018 15.2698204,4.13347389 14.5704545,4.36828829 C13.8798522,4.59831567 13.2055781,4.87510678 12.5522727,5.19675676 C12.0212349,5.45857521 11.5045819,5.74884303 11.0045455,6.06630631 C10.1867799,6.59071607 9.41572364,7.18518449 8.7,7.84306306 C8.05012565,8.44421067 7.44933406,9.09675516 6.90340909,9.79441441 C6.49740704,10.3003834 6.12935112,10.8359077 5.80227273,11.3965766 C5.52613636,11.8724324 5.26704545,12.3585586 5.02159091,12.8481081 C4.74666278,13.413102 4.51087577,13.9964688 4.31590909,14.5940541 C4.05399073,15.3764151 3.85114388,16.1774812 3.70909091,16.9904505 C3.58003997,17.759119 3.50372397,18.5357821 3.48068182,19.314955 L3.48068182,19.4621622 L0,19.4621622 C0.0299223718,16.6583902 0.669861611,13.8950826 1.875,11.3657658 C3.6743767,7.51562898 6.66355223,4.35179224 10.3977273,2.34504505 C13.115222,0.858638384 16.1503209,0.0540975563 19.2443182,9.72995458e-15 L19.2443182,0 Z" id="Shape"></path>
                        <path d="M8.79204545,19.4484685 L5.29431818,19.4758559 C5.30781754,17.7488596 5.64313815,16.0396628 6.28295455,14.4365766 C7.34421254,11.7229198 9.20721507,9.40050398 11.6215909,7.78144144 C13.8766641,6.23884197 16.5299295,5.38836854 19.2579545,5.33369369 L19.2579545,8.86324324 C13.5180829,9.02792406 8.91504739,13.6834363 8.79204545,19.4484685 L8.79204545,19.4484685 Z" id="Shape"></path>
                        <ellipse id="Oval" cx="6.97840909" cy="22.0845045" rx="1.68068182" ry="1.68774775"></ellipse>
                        <ellipse id="Oval" cx="12.5897727" cy="29.8899099" rx="1.68068182" ry="1.68774775"></ellipse>
                        <ellipse id="Oval" cx="15.4772727" cy="33.6351351" rx="1.68068182" ry="1.68774775"></ellipse>
                        <ellipse id="Oval" cx="7.97045455" cy="30.085045" rx="1.68068182" ry="1.68774775"></ellipse>
                        <ellipse id="Oval" cx="11.5056818" cy="34.2102703" rx="1.04318182" ry="1.04756757"></ellipse>
                        <ellipse id="Oval" cx="14.2125" cy="36.949009" rx="1.04318182" ry="1.04756757"></ellipse>
                        <ellipse id="Oval" cx="8.05227273" cy="34.0185586" rx="1.04318182" ry="1.04756757"></ellipse>
                        <ellipse id="Oval" cx="19.0056818" cy="31.5845045" rx="1.04318182" ry="1.04756757"></ellipse>
                        <ellipse id="Oval" cx="18.5386364" cy="35.8911712" rx="1.04318182" ry="1.04756757"></ellipse>
                        <ellipse id="Oval" cx="10.5511364" cy="26.7232432" rx="1.04318182" ry="1.04756757"></ellipse>
                        <ellipse id="Oval" cx="4.44204545" cy="29.8899099" rx="1.04318182" ry="1.04756757"></ellipse>
                        <ellipse id="Oval" cx="3.91022727" cy="24.4945946" rx="1.04318182" ry="1.04756757"></ellipse>
                        <ellipse id="Oval" cx="1.63977273" cy="22.2693694" rx="1.04318182" ry="1.04756757"></ellipse>
                        <ellipse id="Oval" cx="2.71022727" cy="27.069009" rx="1.04318182" ry="1.04756757"></ellipse>
                        <ellipse id="Oval" cx="7.12840909" cy="26.0864865" rx="1.04318182" ry="1.04756757"></ellipse>
                    </g>
                </g>
            </g>
        </g>
    </g>
</svg>