<?xml version="1.0" encoding="UTF-8" standalone="no"?>
<svg width="106px" height="190px" viewBox="0 0 106 190" version="1.1" xmlns="http://www.w3.org/2000/svg" xmlns:xlink="http://www.w3.org/1999/xlink">
    <!-- Generator: Sketch 41 (35326) - http://www.bohemiancoding.com/sketch -->
    <title>HeroTracker</title>
    <desc>Created with Sketch.</desc>
    <defs></defs>
    <g id="Page-1" stroke="none" stroke-width="1" fill="none" fill-rule="evenodd">
        <g id="Bootstrap-Copy" transform="translate(-246.000000, -710.000000)">
            <g id="HeroTracker" transform="translate(246.000000, 710.000000)">
                <g id="Layer_1">
                    <g id="Group">
                        <polygon id="_Path_" fill="#0060BF" points="88.8556522 189.557986 50.9195031 175.611458 71.6257143 122.200347 105.789317 145.561111"></polygon>
                        <path d="M72.2643478,11.3604167 L72.2643478,11.3604167 C72.2643478,5.06666667 58.1880745,0.0263888889 40.8922981,0.105555556 C23.8335404,0.184722222 9.98770186,5.21180556 9.63875776,11.3868056 L9.63875776,11.3868056 L9.63875776,11.4659722 L9.63875776,11.6440972 L9.63875776,11.8024306 L9.63875776,69.1520833 L72.2775155,69.1520833 L72.2775155,11.3604167 L72.2643478,11.3604167 Z" id="_Path_2" fill="#63A1E8"></path>
                        <path d="M73.9432298,55.753125 L73.3309317,98.5427083 L37.2580124,99.4135417 C57.1807453,98.9583333 73.6074534,79.384375 73.9432298,55.753125 Z" id="_Path_3" fill="#F2F2F2"></path>
                        <path d="M38.4760248,13.8541667 L74.5489441,12.9833333 L73.936646,55.7729167 C74.2790062,32.121875 58.4053416,13.3527778 38.4760248,13.8541667 Z" id="_Path_4" fill="#F2F2F2"></path>
                        <path d="M37.2580124,99.4069444 L1.18509317,100.277778 L1.7973913,57.4881944 C1.45503106,81.1458333 17.3352795,99.8885417 37.2580124,99.4069444 Z" id="_Path_5" fill="#F2F2F2"></path>
                        <path d="M38.4760248,13.8541667 L38.4760248,13.8541667 C58.3987578,13.3725694 74.2790062,32.1416667 73.9432298,55.7729167 L73.9432298,55.7729167 C73.6074534,79.4041667 57.1807453,98.9451389 37.2580124,99.4267361 L37.2580124,99.4267361 C17.3352795,99.9083333 1.45503106,81.1392361 1.79080745,57.5079861 L1.79080745,57.5079861 C2.1331677,33.8569444 18.5532919,14.3159722 38.4760248,13.8541667 Z" id="_Path_6" fill="#F2F2F2"></path>
                        <rect id="Rectangle" fill="#F2F2F2" x="2" y="58" width="34" height="44"></rect>
                        <path d="M37.1658385,106.083333 L37.1658385,106.083333 C57.0885714,105.667708 72.962236,121.626389 72.6132919,141.708333 L72.6132919,141.708333 C72.2643478,161.816667 55.8310559,178.461458 35.908323,178.877083 L35.908323,178.877083 C15.9855901,179.292708 0.111925466,163.334028 0.460869565,143.252083 L0.460869565,143.252083 C0.803229814,123.14375 17.2431056,106.505556 37.1658385,106.083333 Z" id="_Path_7" fill="#F2F2F2"></path>
                        <path d="M73.3375155,98.5361111 L72.6330435,148.015278 C72.9688199,124.384028 57.0885714,105.614931 37.1658385,106.096528 L37.1658385,106.096528 C17.2431056,106.578125 1.10608696,126.686458 0.770310559,150.297917 L1.18509317,100.277778 L73.3375155,98.5361111 Z" id="_Path_8" fill="#F2F2F2"></path>
                        <path d="M11.8838509,28.5791667 L9.90869565,146.966319 L9.96136646,146.966319 C9.96136646,164.116487 23.8361455,178.019444 40.9515528,178.019444 C58.0695652,178.019444 72.6330435,165.154861 72.6330435,148.002083 L72.6330435,146.946528 L71.9746584,13.4847222 L11.8838509,28.5791667 Z" id="_Path_9" fill="#F2F2F2"></path>
                        <rect id="Rectangle-2" fill="#F2F2F2" x="41" y="14" width="28" height="9"></rect>
                        <ellipse id="_Path_10" fill="#B8B7B8" cx="34.0187578" cy="144.604514" rx="11.2518012" ry="11.2746528"></ellipse>
                        <path d="M41.7086957,136.384375 C39.5391634,134.331002 36.6444116,133.225376 33.6613129,133.310745 C30.6782141,133.396115 27.8511539,134.665485 25.8021118,136.839583 L25.9535404,136.978125 C30.3012819,133.302256 36.7091607,133.478945 40.8485811,137.388838 C44.9880016,141.29873 45.5421298,147.698009 42.136646,152.263889 L42.1959006,152.316667 C46.4500561,147.781527 46.2319764,140.650012 41.7086957,136.384375 L41.7086957,136.384375 Z" id="_Path_11" fill="#000000" opacity="0.1"></path>
                    </g>
                </g>
            </g>
        </g>
    </g>
</svg>